<svg width="68" height="48" viewBox="0 0 68 48" fill="none" xmlns="http://www.w3.org/2000/svg">
<path fill-rule="evenodd" clip-rule="evenodd" d="M0.368906 15.9554C0.367488 15.719 0.528973 15.5126 0.758779 15.4572C5.35902 14.3482 49.1202 3.79903 62.9825 0.457323C63.9938 0.213542 65.061 0.447061 65.8781 1.09091C66.6953 1.73483 67.1722 2.71798 67.1722 3.75852C67.1722 6.67221 67.1722 10.4261 67.1722 12.9069C67.1722 14.6414 66.7296 16.3471 65.8861 17.8626C65.6703 18.2502 65.4799 18.5923 65.3667 18.7958C65.297 18.921 65.2832 19.0697 65.3288 19.2056C65.649 20.1606 66.9442 24.0243 67.1458 24.6256C67.1633 24.6778 67.1722 24.7325 67.1722 24.7875C67.1722 25.858 67.1722 36.9444 67.1722 39.1997C67.1722 39.434 67.0124 39.6382 66.7849 39.6942C63.3947 40.53 38.7936 46.5951 34.5531 47.6405C34.4023 47.6777 34.2429 47.644 34.1201 47.5492C33.9973 47.4543 33.9244 47.3086 33.9221 47.1534C33.8924 45.1163 33.8005 38.8013 33.7709 36.772C33.7687 36.6175 33.6964 36.4724 33.5746 36.3775C33.4527 36.2825 33.2944 36.2481 33.1441 36.2838C29.0035 37.2677 5.31703 42.8962 1.15925 43.8841C1.00823 43.92 0.849108 43.885 0.727049 43.7891C0.60499 43.6932 0.533294 43.5468 0.532416 43.3915C0.509193 39.4996 0.387539 19.0881 0.368906 15.9554V15.9554Z" fill="#22096c"/>
<path fill-rule="evenodd" clip-rule="evenodd" d="M1.51851e-05 15.9485L0.163526 43.3847C0.165079 43.6477 0.28653 43.8957 0.493382 44.0582C0.700167 44.2208 0.969805 44.28 1.22567 44.2192C5.38351 43.2312 29.0699 37.6028 33.2106 36.6189C33.2565 36.608 33.3049 36.6185 33.3421 36.6476C33.3793 36.6765 33.4014 36.7209 33.4021 36.7681C33.4317 38.7974 33.5236 45.1124 33.5532 47.1495C33.5571 47.4125 33.6806 47.6594 33.8888 47.8202C34.097 47.9809 34.3671 48.0379 34.6224 47.9749C38.8629 46.9295 63.4641 40.8644 66.8542 40.0286C67.2397 39.9336 67.5106 39.5877 67.5106 39.1906C67.5106 36.9354 67.5106 25.849 67.5106 24.7785C67.5106 24.6852 67.4955 24.5925 67.4658 24.504C67.2642 23.9028 65.9689 20.0391 65.6488 19.0841C65.6349 19.0426 65.6391 18.9971 65.6603 18.9589C65.7736 18.7554 65.964 18.4132 66.1797 18.0256C67.0525 16.4575 67.5106 14.6925 67.5106 12.8978C67.5106 10.417 67.5106 6.66316 67.5106 3.74947C67.5106 2.60051 66.9839 1.51494 66.0817 0.803985C65.1794 0.0930317 64.001 -0.164791 62.8844 0.104373C49.0221 3.44608 5.26091 13.9953 0.660674 15.1043C0.271273 15.1981 -0.00234768 15.5478 1.51851e-05 15.9485V15.9485ZM0.707188 15.9442C0.706783 15.872 0.756134 15.809 0.826345 15.792C5.42658 14.6831 49.1878 4.13381 63.0501 0.792171C63.956 0.573774 64.912 0.782922 65.6441 1.35973C66.3761 1.93654 66.8034 2.81729 66.8034 3.74947C66.8034 6.66316 66.8034 10.417 66.8034 12.8978C66.8034 14.5721 66.3761 16.2187 65.5619 17.6814C65.3461 18.0691 65.1557 18.4112 65.0425 18.6147C64.9244 18.8268 64.9011 19.0788 64.9783 19.309C65.2985 20.264 66.5937 24.1277 66.7953 24.729C66.8006 24.7449 66.8034 24.7617 66.8034 24.7785C66.8034 25.849 66.8034 36.9354 66.8034 39.1906C66.8034 39.2623 66.7545 39.3246 66.6851 39.3417C63.2949 40.1775 38.6937 46.2426 34.4532 47.288C34.4071 47.2994 34.3584 47.2891 34.3209 47.2601C34.2834 47.2311 34.2611 47.1866 34.2603 47.1392C34.2307 45.1021 34.1388 38.7871 34.1092 36.7578C34.1054 36.496 33.983 36.2501 33.7766 36.0893C33.57 35.9285 33.3018 35.8701 33.0472 35.9306C28.9065 36.9145 5.22007 42.5429 1.06223 43.5309C1.01612 43.5419 0.967509 43.5312 0.930176 43.5019C0.89291 43.4726 0.870969 43.4279 0.870699 43.3804L0.707188 15.9442V15.9442Z" fill="#22096c"/>
<path d="M7.8508 39.1729C7.8508 39.4086 7.68918 39.6135 7.46012 39.6683C6.62745 39.8676 4.67193 40.3357 3.66231 40.5774C3.51069 40.6137 3.35082 40.5785 3.22842 40.4819C3.10603 40.3853 3.03467 40.238 3.03467 40.082C3.03467 36.6426 3.03467 20.5273 3.03467 17.77C3.03467 17.5343 3.19622 17.3294 3.42535 17.2746C5.40591 16.8005 14.2432 14.6852 14.2432 14.6852C16.5005 14.1449 17.629 15.0914 17.629 17.5247V23.3646C17.629 27.7445 15.1966 30.5167 10.3319 31.6811C10.3319 31.6811 8.94029 32.0142 8.24149 32.1815C8.01236 32.2363 7.8508 32.4412 7.8508 32.6769C7.8508 33.9519 7.8508 37.8979 7.8508 39.1729V39.1729ZM25.3462 26.6273C25.117 26.6821 24.9555 26.887 24.9555 27.1227C24.9555 27.8829 24.9555 29.5374 24.9555 30.4551C24.9555 30.611 25.0268 30.7584 25.1492 30.855C25.2716 30.9516 25.4315 30.9867 25.5831 30.9505C27.011 30.6087 30.489 29.7762 31.9169 29.4344C32.0685 29.3981 32.2284 29.4333 32.3508 29.5299C32.4731 29.6265 32.5445 29.7738 32.5445 29.9298C32.5445 30.8475 32.5445 32.502 32.5445 33.2622C32.5445 33.4979 32.383 33.7028 32.1539 33.7576C30.3685 34.185 22.9781 35.954 20.767 36.4832C20.6154 36.5195 20.4555 36.4843 20.3331 36.3877C20.2107 36.2911 20.1393 36.1437 20.1393 35.9878C20.1393 32.5484 20.1393 16.4331 20.1393 13.6757C20.1393 13.4401 20.3009 13.2352 20.53 13.1804C22.3153 12.753 29.7058 10.984 31.9169 10.4548C32.0685 10.4185 32.2284 10.4537 32.3508 10.5503C32.4731 10.6469 32.5445 10.7943 32.5445 10.9502C32.5445 11.8679 32.5445 13.5224 32.5445 14.2826C32.5445 14.5183 32.383 14.7232 32.1539 14.778C30.8491 15.0903 26.6509 16.0952 25.3462 16.4075C25.117 16.4623 24.9555 16.6672 24.9555 16.9029C24.9555 17.8978 24.9555 20.4828 24.9555 21.6953C24.9555 21.8512 25.0268 21.9986 25.1492 22.0952C25.2716 22.1917 25.4315 22.227 25.5831 22.1907C26.8883 21.8782 29.882 21.1617 31.1872 20.8493C31.3388 20.813 31.4987 20.8481 31.6211 20.9447C31.7434 21.0414 31.8148 21.1887 31.8148 21.3446C31.8148 22.2623 31.8148 23.9168 31.8148 24.6771C31.8148 24.9127 31.6533 25.1176 31.4241 25.1725C30.2167 25.4615 26.5536 26.3383 25.3462 26.6273V26.6273ZM40.2763 23.0536C40.0471 23.1085 39.8856 23.3134 39.8856 23.549C39.8856 24.3092 39.8856 25.9637 39.8856 26.8814C39.8856 27.0374 39.9569 27.1847 40.0793 27.2813C40.2017 27.3779 40.3616 27.4131 40.5132 27.3768C41.9411 27.035 45.4191 26.2025 46.847 25.8607C46.9986 25.8244 47.1585 25.8596 47.2809 25.9562C47.4032 26.0528 47.4746 26.2002 47.4746 26.3561C47.4746 27.2738 47.4746 28.9283 47.4746 29.6885C47.4746 29.9242 47.3131 30.1291 47.084 30.1839C45.2986 30.6112 37.9082 32.3802 35.6971 32.9095C35.5455 32.9458 35.3856 32.9106 35.2632 32.814C35.1408 32.7174 35.0694 32.5701 35.0694 32.4141C35.0694 28.9747 35.0694 12.8594 35.0694 10.1021C35.0694 9.86639 35.231 9.66157 35.4601 9.60668C37.2454 9.17934 44.6359 7.41036 46.847 6.88114C46.9986 6.84482 47.1585 6.87999 47.2809 6.9766C47.4032 7.07321 47.4746 7.22052 47.4746 7.37647C47.4746 8.29421 47.4746 9.94869 47.4746 10.7089C47.4746 10.9446 47.3131 11.1494 47.084 11.2043C45.7792 11.5166 41.581 12.5215 40.2763 12.8338C40.0471 12.8886 39.8856 13.0935 39.8856 13.3292C39.8856 14.3241 39.8856 16.9091 39.8856 18.1216C39.8856 18.2775 39.9569 18.4249 40.0793 18.5215C40.2017 18.6181 40.3616 18.6532 40.5132 18.617C41.8184 18.3045 44.8121 17.588 46.1173 17.2755C46.2689 17.2393 46.4288 17.2745 46.5512 17.3711C46.6735 17.4677 46.7449 17.615 46.7449 17.7709C46.7449 18.6887 46.7449 20.3432 46.7449 21.1034C46.7449 21.339 46.5834 21.5439 46.3542 21.5988C45.1468 21.8878 41.4837 22.7646 40.2763 23.0536V23.0536ZM64.4121 25.4625C64.4587 25.5983 64.4458 25.7474 64.3767 25.8732C64.3075 25.999 64.1885 26.0897 64.049 26.1231C63.0587 26.3602 60.982 26.8573 60.0667 27.0763C59.8117 27.1374 59.5522 26.9947 59.4668 26.7467C59.0471 25.527 57.8668 22.0965 57.4471 20.8768C57.3618 20.6287 57.1022 20.4861 56.8472 20.5471C56.3786 20.6593 55.6517 20.8333 55.2064 20.9399C54.9772 20.9947 54.8157 21.1996 54.8157 21.4353C54.8157 22.7104 54.8157 26.6563 54.8157 27.9314C54.8157 28.167 54.6541 28.3719 54.425 28.4267C53.5923 28.6261 51.6367 29.0941 50.6272 29.3358C50.4756 29.3721 50.3157 29.3369 50.1933 29.2403C50.0709 29.1437 49.9995 28.9964 49.9995 28.8404C49.9995 25.401 49.9995 9.28573 49.9995 6.5284C49.9995 6.29272 50.1611 6.08783 50.3902 6.03301C52.3707 5.55895 61.208 3.44364 61.208 3.44364C63.4653 2.90335 64.5939 3.84985 64.5939 6.28313V12.123C64.5939 14.6319 63.7973 16.6137 62.204 18.0687C62.053 18.2051 61.9979 18.4184 62.0639 18.611C62.4723 19.8049 63.9027 23.977 64.4121 25.4625V25.4625ZM10.3319 27.3012C11.9859 26.9053 12.8129 25.9773 12.8129 24.5174C12.8129 24.5174 12.8129 21.4273 12.8129 20.0531C12.8129 19.8971 12.7415 19.7498 12.6191 19.6532C12.4967 19.5566 12.3369 19.5214 12.1853 19.5577C11.146 19.8064 9.09772 20.2967 8.24149 20.5017C8.01236 20.5566 7.8508 20.7615 7.8508 20.9971C7.8508 22.1994 7.8508 25.7759 7.8508 27.2494C7.8508 27.4054 7.92223 27.5527 8.04463 27.6494C8.16696 27.746 8.32689 27.7811 8.47845 27.7448C9.21351 27.5689 10.3319 27.3012 10.3319 27.3012V27.3012ZM57.2967 16.0596C58.9508 15.6637 59.7778 14.7358 59.7778 13.2758C59.7778 13.2758 59.7778 10.1857 59.7778 8.81154C59.7778 8.65559 59.7063 8.50821 59.5839 8.41161C59.4616 8.315 59.3017 8.27983 59.1501 8.31615C58.1109 8.56486 56.0626 9.05519 55.2064 9.26015C54.9772 9.31497 54.8157 9.51986 54.8157 9.75547C54.8157 10.9578 54.8157 14.5343 54.8157 16.0079C54.8157 16.1638 54.887 16.3112 55.0094 16.4078C55.1318 16.5044 55.2917 16.5395 55.4433 16.5032C56.1783 16.3273 57.2967 16.0596 57.2967 16.0596V16.0596Z" fill="url(#paint0_linear)"/>
<path d="M40.8055 44.2761L37.5199 45.1028C36.5719 45.3414 36.0979 44.9497 36.0979 43.9277V37.1826C36.0979 36.1607 36.5719 35.5304 37.5199 35.2918L40.8055 34.4651C41.7535 34.2265 42.2276 34.6182 42.2276 35.6402V37.0408C42.2276 37.1186 42.1747 37.1865 42.0993 37.2055C41.7596 37.2909 40.8348 37.5236 40.4159 37.629C40.3652 37.6418 40.3114 37.6304 40.2701 37.5983C40.2289 37.5661 40.2048 37.5167 40.2048 37.4644C40.2048 37.2414 40.2048 36.8966 40.2048 36.6736C40.2048 36.6212 40.1807 36.5719 40.1394 36.5397C40.0982 36.5075 40.0444 36.4961 39.9937 36.5089C39.5636 36.6171 38.5974 36.8603 38.249 36.9479C38.1736 36.9669 38.1207 37.0348 38.1207 37.1126C38.1207 37.8947 38.1207 41.9105 38.1207 42.8944C38.1207 42.9467 38.1448 42.9961 38.1861 43.0282C38.2273 43.0604 38.2811 43.0718 38.3318 43.059C38.7619 42.9508 39.728 42.7076 40.0764 42.62C40.1519 42.601 40.2048 42.5332 40.2048 42.4553C40.2048 42.1418 40.2048 41.3512 40.2048 40.9659C40.2048 40.9136 40.1807 40.8642 40.1394 40.832C40.0982 40.7999 40.0444 40.7885 39.9937 40.8013C39.8131 40.8467 39.5544 40.9118 39.3738 40.9572C39.3231 40.97 39.2693 40.9586 39.2281 40.9264C39.1868 40.8943 39.1627 40.8449 39.1627 40.7926C39.1627 40.4073 39.1627 39.6167 39.1627 39.3031C39.1627 39.2253 39.2156 39.1575 39.291 39.1385C39.7657 39.0191 41.4253 38.6014 42.0164 38.4526C42.0672 38.4399 42.1209 38.4512 42.1622 38.4834C42.2034 38.5156 42.2276 38.565 42.2276 38.6173C42.2276 39.45 42.2276 42.3853 42.2276 42.3853C42.2276 43.4073 41.7535 44.0375 40.8055 44.2761V44.2761ZM47.3481 40.9764C47.3396 40.9303 47.3123 40.8897 47.2729 40.8644C47.2334 40.8391 47.1853 40.8312 47.1398 40.8426C46.6959 40.9543 45.5378 41.2457 45.1792 41.336C45.1139 41.3524 45.0645 41.4059 45.0532 41.4723C44.9961 41.8104 44.8226 42.8369 44.7654 43.175C44.7541 43.2414 44.7047 43.2949 44.6394 43.3114C44.322 43.3912 43.3822 43.6277 42.9248 43.7428C42.8688 43.7569 42.8095 43.7416 42.7673 43.7021C42.7252 43.6626 42.706 43.6044 42.7164 43.5476C42.9892 42.0565 44.3511 34.6139 44.531 33.6301C44.5431 33.5646 44.5921 33.5122 44.6566 33.496C45.132 33.3764 47.0713 32.8884 47.6636 32.7393C47.7086 32.7279 47.7563 32.7356 47.7956 32.7604C47.8348 32.7851 47.8622 32.8249 47.8714 32.8704C48.1076 34.0424 49.4602 40.7539 49.6861 41.8747C49.704 41.9635 49.649 42.0508 49.5611 42.0729C49.1811 42.1685 48.2138 42.4119 47.8155 42.5122C47.7701 42.5236 47.7219 42.5157 47.6824 42.4904C47.6429 42.465 47.6157 42.4245 47.6072 42.3784C47.5449 42.0413 47.4104 41.3135 47.3481 40.9764V40.9764ZM53.9089 39.8016C53.8195 39.8241 53.7286 39.7711 53.7039 39.6823C53.5461 39.1129 53.0016 37.1472 52.641 35.8458C52.6183 35.764 52.5387 35.7114 52.4546 35.7229C52.3704 35.7343 52.3077 35.8062 52.3077 35.8912C52.3077 37.6276 52.3077 40.6342 52.3077 41.2985C52.3077 41.3763 52.2548 41.4442 52.1794 41.4631C51.8642 41.5425 51.0493 41.7476 50.6616 41.8451C50.6108 41.8579 50.557 41.8465 50.5158 41.8143C50.4745 41.7822 50.4504 41.7328 50.4504 41.6805C50.4504 40.3442 50.4504 33.2767 50.4504 32.2195C50.4504 32.1418 50.5033 32.0738 50.5787 32.0549C51.0229 31.9431 52.4946 31.5728 52.9861 31.4491C53.0757 31.4265 53.1669 31.4799 53.1912 31.5691C53.3708 32.2283 54.0568 34.7471 54.383 35.9448C54.4034 36.0196 54.4718 36.0711 54.5493 36.0699C54.6269 36.0687 54.6938 36.0151 54.7118 35.9397C55.0422 34.5605 55.799 31.4008 55.9432 30.799C55.9579 30.7375 56.0056 30.6893 56.0669 30.6739C56.4598 30.575 57.9064 30.211 58.4531 30.0734C58.5038 30.0607 58.5576 30.072 58.5988 30.1042C58.6401 30.1364 58.6642 30.1858 58.6642 30.2381C58.6642 31.5744 58.6642 38.6418 58.6642 39.699C58.6642 39.7768 58.6113 39.8446 58.5359 39.8637C58.2206 39.943 57.4059 40.148 57.018 40.2456C56.9673 40.2583 56.9135 40.247 56.8723 40.2149C56.831 40.1827 56.8069 40.1333 56.8069 40.0809C56.8069 39.3025 56.8069 36.6142 56.8069 34.9271C56.8069 34.8411 56.7427 34.7687 56.6574 34.7585C56.5721 34.7483 56.4926 34.8034 56.4723 34.8869C56.0943 36.4414 55.5154 38.8223 55.3907 39.3353C55.3757 39.3965 55.3282 39.4444 55.2671 39.4598C54.996 39.528 54.2413 39.7179 53.9089 39.8016V39.8016ZM61.5837 35.3347C61.5083 35.3536 61.4554 35.4215 61.4554 35.4993C61.4554 35.8129 61.4554 36.6035 61.4554 36.9887C61.4554 37.0411 61.4796 37.0905 61.5208 37.1226C61.5621 37.1548 61.6158 37.1662 61.6666 37.1534C62.2454 37.0077 63.8529 36.6033 64.4318 36.4576C64.4825 36.4448 64.5363 36.4562 64.5775 36.4884C64.6188 36.5205 64.6429 36.5699 64.6429 36.6222C64.6429 37.0075 64.6429 37.7981 64.6429 38.1116C64.6429 38.1895 64.59 38.2573 64.5145 38.2763C63.8206 38.451 60.5154 39.2826 59.6438 39.502C59.5931 39.5147 59.5393 39.5034 59.498 39.4712C59.4568 39.439 59.4327 39.3896 59.4327 39.3373C59.4327 38.001 59.4327 30.9337 59.4327 29.8764C59.4327 29.7986 59.4855 29.7308 59.5609 29.7118C60.2549 29.5371 63.5601 28.7054 64.4318 28.4861C64.4825 28.4733 64.5363 28.4846 64.5775 28.5168C64.6188 28.549 64.6429 28.5984 64.6429 28.6508C64.6429 29.036 64.6429 29.8266 64.6429 30.1402C64.6429 30.218 64.59 30.2858 64.5145 30.3049C64.001 30.4341 62.0972 30.9131 61.5837 31.0423C61.5083 31.0613 61.4554 31.1292 61.4554 31.207C61.4554 31.6081 61.4554 32.8128 61.4554 33.3096C61.4554 33.3619 61.4796 33.4113 61.5208 33.4435C61.5621 33.4757 61.6158 33.487 61.6666 33.4743C62.1992 33.3402 63.5927 32.9896 64.1253 32.8555C64.176 32.8428 64.2298 32.8541 64.271 32.8863C64.3123 32.9185 64.3364 32.9679 64.3364 33.0202C64.3364 33.4055 64.3364 34.1961 64.3364 34.5096C64.3364 34.5875 64.2835 34.6553 64.2081 34.6743C63.7308 34.7944 62.061 35.2146 61.5837 35.3347V35.3347ZM46.8361 39.0795C46.9228 39.0576 46.9778 38.9721 46.9616 38.8841C46.8331 38.1848 46.3147 35.364 46.2443 34.9811C46.2422 34.97 46.2357 34.9601 46.2261 34.954C46.2166 34.9478 46.2049 34.9459 46.1939 34.9487C46.1938 34.9487 46.1938 34.9488 46.1937 34.9488C46.1675 34.9553 46.1477 34.9769 46.1432 35.0035C46.0773 35.3952 45.5888 38.2991 45.4397 39.1855C45.4302 39.242 45.4499 39.2995 45.4919 39.3384C45.5341 39.3773 45.5929 39.3923 45.6485 39.3783C45.9822 39.2943 46.5607 39.1487 46.8361 39.0795V39.0795Z" fill="#EAEBF9"/>
<defs>
<linearGradient id="paint0_linear" x1="49.9995" y1="-15.461" x2="50.4492" y2="54.8891" gradientUnits="userSpaceOnUse">
<stop stop-color="white"/>
<stop offset="0.24" stop-color="#FFFDF6"/>
<stop offset="0.32" stop-color="#FFF9E1"/>
<stop offset="0.4" stop-color="#FFF5CC"/>
<stop offset="1" stop-color="#C9509D"/>
</linearGradient>
</defs>
</svg>
